<?xml version="1.0" encoding="UTF-8"?>
<svg id="Layer_1" data-name="Layer 1" xmlns="http://www.w3.org/2000/svg" viewBox="0 0 720 720">
  <defs>
    <style>
      .cls-1 {
        fill: #895431;
      }

      .cls-2 {
        fill: #fff;
      }
    </style>
  </defs>
  <g>
    <path class="cls-2" d="M699.4,332.17L387.83,20.6c-15.37-15.37-40.29-15.37-55.66,0L20.6,332.17c-15.37,15.37-15.37,40.29,0,55.66l311.57,311.57c15.37,15.37,40.29,15.37,55.66,0l311.57-311.57c15.37-15.37,15.37-40.29,0-55.66ZM338.92,26.67c11.64-11.65,30.52-11.65,42.17,0l161.71,161.72H177.2L338.92,26.67ZM693.34,381.09l-312.25,312.25c-5.36,5.36-12.25,8.25-19.27,8.67-1.21.08-2.42.08-3.64,0-7.01-.42-13.91-3.31-19.26-8.67L26.67,381.09c-11.65-11.64-11.65-30.52,0-42.17l141.51-141.52h383.64l141.52,141.52c11.64,11.65,11.64,30.53,0,42.17Z"/>
    <path class="cls-2" d="M542.8,188.39H177.2L338.92,26.67c11.64-11.65,30.52-11.65,42.17,0l161.71,161.72Z"/>
    <path class="cls-2" d="M656.28,377.59l-22.83,22.84h-.01l-262.95,262.96c-5.88,5.87-15.4,5.87-21.27,0L63.72,377.9c-.29-.29-.56-.59-.81-.89-.09-.1-.17-.19-.25-.29-.5-.61-.93-1.24-1.32-1.88-.06-.11-.12-.21-.19-.33-.24-.43-.45-.86-.65-1.3-.04-.11-.09-.23-.14-.34-.09-.23-.17-.45-.25-.67-.12-.34-.23-.68-.32-1.03-.06-.23-.12-.45-.17-.68-.04-.23-.09-.46-.13-.69-.04-.23-.07-.46-.09-.69-.17-1.36-.13-2.72.07-4.05.11-.71.27-1.4.48-2.08.03-.12.07-.24.11-.36.09-.29.2-.58.31-.87.11-.29.24-.57.37-.85.05-.11.1-.22.16-.33.11-.22.22-.44.34-.66.12-.22.25-.43.38-.64.59-.94,1.27-1.83,2.06-2.63.08-.09.17-.18.26-.25,2.59-2.53,6.17-4.16,10.41-4.16l571.29-.31c4.4-.01,8.07,1.73,10.69,4.41.79.8,1.48,1.68,2.06,2.63.14.21.26.42.38.64.12.21.24.43.34.65.06.12.12.23.17.34.13.28.25.56.36.85.12.29.22.58.31.87.05.12.08.24.12.35,1.48,4.93.51,10.62-3.79,14.93Z"/>
    <path class="cls-1" d="M693.34,338.92l-141.52-141.52H168.18L26.67,338.92c-11.65,11.65-11.65,30.53,0,42.17l312.25,312.25c5.35,5.36,12.25,8.25,19.26,8.67,1.22.08,2.43.08,3.64,0,7.02-.42,13.91-3.31,19.27-8.67l312.25-312.25c11.64-11.64,11.64-30.52,0-42.17ZM656.28,377.59l-22.83,22.84h-.01l-262.95,262.96c-5.88,5.87-15.4,5.87-21.27,0L63.72,377.9c-.29-.29-.56-.59-.81-.89-.09-.1-.17-.19-.25-.29-.5-.61-.93-1.24-1.32-1.88-.06-.11-.12-.21-.19-.33-.24-.43-.45-.86-.65-1.3-.04-.11-.09-.23-.14-.34-.09-.23-.17-.45-.25-.67-.12-.34-.23-.68-.32-1.03-.06-.23-.12-.45-.17-.68-.04-.23-.09-.46-.13-.69-.04-.23-.07-.46-.09-.69-.17-1.36-.13-2.72.07-4.05.11-.71.27-1.4.48-2.08.03-.12.07-.24.11-.36.09-.29.2-.58.31-.87.11-.29.24-.57.37-.85.05-.11.1-.22.16-.33.11-.22.22-.44.34-.66.12-.22.25-.43.38-.64.59-.94,1.27-1.83,2.06-2.63.08-.09.17-.18.26-.25,2.59-2.53,6.17-4.16,10.41-4.16l571.29-.31c4.4-.01,8.07,1.73,10.69,4.41.79.8,1.48,1.68,2.06,2.63.14.21.26.42.38.64.12.21.24.43.34.65.06.12.12.23.17.34.13.28.25.56.36.85.12.29.22.58.31.87.05.12.08.24.12.35,1.48,4.93.51,10.62-3.79,14.93Z"/>
    <path class="cls-1" d="M381.09,26.67c-11.65-11.65-30.53-11.65-42.17,0l-161.72,161.72h365.6L381.09,26.67ZM363.38,133.06c-1.12-.2-2.18.55-2.37,1.67-.03.15-.04.29-.03.44l.97,18.67h-3.89l.97-18.67c.05-1.13-.82-2.09-1.96-2.14-.14-.01-.29,0-.44.03l-18.58,3.26,2.51-6.93c.21-.56.03-1.19-.44-1.57l-20.35-16.48,4.59-2.14c.64-.31.96-1.04.73-1.71l-4.02-12.38,11.73,2.49c.65.14,1.31-.21,1.57-.82l2.27-5.34,9.16,9.82c.53.56,1.42.58,1.98.05.35-.33.51-.82.41-1.29l-4.41-22.75,7.07,4.09c.67.39,1.54.17,1.93-.51.02-.02.03-.05.04-.08l7.18-14.1,7.18,14.1c.36.7,1.2.97,1.89.63.03-.02.06-.03.09-.04l7.07-4.09-4.42,22.75c-.14.77.36,1.5,1.12,1.65.47.09.96-.06,1.28-.41l9.16-9.82,2.27,5.34c.26.61.92.96,1.58.82l11.72-2.49-4.03,12.38c-.22.67.1,1.4.74,1.71l4.59,2.14-20.36,16.48c-.46.38-.64,1.01-.43,1.57l2.51,6.93-18.58-3.26Z"/>
    <path class="cls-2" d="M379.45,129.39l2.51,6.93-18.58-3.26c-1.12-.2-2.18.55-2.37,1.67-.03.15-.04.29-.03.44l.97,18.67h-3.89l.97-18.67c.05-1.13-.82-2.09-1.96-2.14-.14-.01-.29,0-.44.03l-18.58,3.26,2.51-6.93c.21-.56.03-1.19-.44-1.57l-20.35-16.48,4.59-2.14c.64-.31.96-1.04.73-1.71l-4.02-12.38,11.73,2.49c.65.14,1.31-.21,1.57-.82l2.27-5.34,9.16,9.82c.53.56,1.42.58,1.98.05.35-.33.51-.82.41-1.29l-4.41-22.75,7.07,4.09c.67.39,1.54.17,1.93-.51.02-.02.03-.05.04-.08l7.18-14.1,7.18,14.1c.36.7,1.2.97,1.89.63.03-.02.06-.03.09-.04l7.07-4.09-4.42,22.75c-.14.77.36,1.5,1.12,1.65.47.09.96-.06,1.28-.41l9.16-9.82,2.27,5.34c.26.61.92.96,1.58.82l11.72-2.49-4.03,12.38c-.22.67.1,1.4.74,1.71l4.59,2.14-20.36,16.48c-.46.38-.64,1.01-.43,1.57Z"/>
    <g>
      <path class="cls-1" d="M241.49,477.53c0,2.19-.43,4.23-1.28,6.11-.85,1.88-2.11,3.5-3.8,4.86-1.67,1.37-3.75,2.45-6.24,3.2-2.49.76-5.36,1.15-8.62,1.15-2.65,0-5.21-.33-7.69-.98-2.49-.65-4.69-1.66-6.59-3.06-1.91-1.39-3.41-3.15-4.53-5.31-1.13-2.15-1.66-4.7-1.62-7.65h10.21c0,1.61.29,2.97.87,4.1.58,1.12,1.36,2.02,2.32,2.71.97.7,2.09,1.2,3.4,1.54,1.3.33,2.63.5,4.02.5.94,0,1.95-.08,3.01-.24,1.08-.15,2.09-.46,3.04-.9.93-.45,1.72-1.07,2.35-1.86.62-.78.94-1.77.94-2.98,0-1.3-.42-2.35-1.24-3.16-.84-.8-1.92-1.47-3.26-2.01-1.35-.54-2.86-1.01-4.57-1.42-1.69-.4-3.42-.85-5.17-1.34-1.79-.45-3.54-.99-5.23-1.65-1.71-.64-3.23-1.48-4.57-2.51s-2.43-2.32-3.26-3.86c-.83-1.54-1.23-3.41-1.23-5.61,0-2.47.53-4.6,1.57-6.41,1.05-1.81,2.43-3.32,4.14-4.53,1.71-1.21,3.63-2.11,5.77-2.69,2.15-.58,4.3-.88,6.45-.88,2.51,0,4.91.29,7.22.85,2.31.56,4.35,1.47,6.15,2.72,1.79,1.24,3.21,2.85,4.27,4.79,1.05,1.95,1.58,4.31,1.58,7.08h-10.21c-.09-1.43-.39-2.61-.91-3.55-.5-.94-1.2-1.68-2.04-2.22-.86-.54-1.83-.91-2.93-1.14-1.09-.23-2.3-.33-3.59-.33-.85,0-1.71.09-2.55.27-.85.17-1.62.49-2.32.93-.7.45-1.27,1.01-1.71,1.68-.45.67-.68,1.52-.68,2.55,0,.93.18,1.71.54,2.27.36.59,1.06,1.13,2.12,1.62,1.04.49,2.5.98,4.35,1.47,1.87.5,4.29,1.13,7.29,1.89.89.18,2.13.5,3.72.97,1.6.47,3.16,1.22,4.74,2.25,1.57,1.04,2.92,2.41,4.06,4.13,1.14,1.73,1.71,3.94,1.71,6.62Z"/>
      <polygon class="cls-1" points="288.49 443.82 270.69 473.36 270.69 491.76 260.15 491.76 260.15 473.1 242.56 443.82 254.38 443.82 265.58 462.75 276.74 443.82 288.49 443.82"/>
      <path class="cls-1" d="M329.86,477.53c0,2.19-.43,4.23-1.28,6.11-.85,1.88-2.12,3.5-3.8,4.86-1.68,1.37-3.76,2.45-6.24,3.2-2.49.76-5.37,1.15-8.63,1.15-2.64,0-5.2-.33-7.69-.98-2.48-.65-4.68-1.66-6.57-3.06-1.91-1.39-3.41-3.15-4.54-5.31-1.12-2.15-1.66-4.7-1.61-7.65h10.2c0,1.61.3,2.97.87,4.1.59,1.12,1.36,2.02,2.32,2.71.97.7,2.1,1.2,3.4,1.54,1.3.33,2.64.5,4.02.5.94,0,1.95-.08,3.02-.24,1.07-.15,2.08-.46,3.02-.9.94-.45,1.73-1.07,2.35-1.86.63-.78.94-1.77.94-2.98,0-1.3-.42-2.35-1.24-3.16-.83-.8-1.91-1.47-3.26-2.01-1.34-.54-2.86-1.01-4.57-1.42-1.69-.4-3.41-.85-5.16-1.34-1.79-.45-3.54-.99-5.24-1.65-1.71-.64-3.22-1.48-4.57-2.51-1.34-1.03-2.42-2.32-3.25-3.86-.84-1.54-1.24-3.41-1.24-5.61,0-2.47.53-4.6,1.58-6.41,1.05-1.81,2.42-3.32,4.13-4.53,1.71-1.21,3.63-2.11,5.78-2.69,2.15-.58,4.29-.88,6.45-.88,2.5,0,4.91.29,7.21.85,2.31.56,4.35,1.47,6.16,2.72,1.79,1.24,3.21,2.85,4.26,4.79,1.05,1.95,1.58,4.31,1.58,7.08h-10.21c-.09-1.43-.39-2.61-.9-3.55-.51-.94-1.2-1.68-2.05-2.22-.85-.54-1.82-.91-2.92-1.14-1.1-.23-2.3-.33-3.59-.33-.86,0-1.71.09-2.55.27-.86.17-1.63.49-2.32.93-.7.45-1.27,1.01-1.72,1.68-.45.67-.68,1.52-.68,2.55,0,.93.19,1.71.55,2.27.35.59,1.06,1.13,2.11,1.62,1.05.49,2.51.98,4.37,1.47,1.86.5,4.28,1.13,7.28,1.89.9.18,2.13.5,3.72.97,1.6.47,3.17,1.22,4.74,2.25,1.57,1.04,2.92,2.41,4.06,4.13,1.14,1.73,1.72,3.94,1.72,6.62Z"/>
      <polygon class="cls-1" points="371.63 443.82 371.63 452.69 357.25 452.69 357.25 491.77 346.71 491.77 346.71 452.69 332.34 452.69 332.34 443.82 371.63 443.82"/>
      <polygon class="cls-1" points="413.53 482.9 413.53 491.76 377.13 491.76 377.13 443.82 412.98 443.82 412.98 452.69 387.67 452.69 387.67 462.96 410.9 462.96 410.9 471.14 387.67 471.14 387.67 482.9 413.53 482.9"/>
      <path class="cls-1" d="M518.88,477.53c0,2.19-.43,4.23-1.27,6.11-.86,1.88-2.12,3.5-3.8,4.86-1.68,1.37-3.76,2.45-6.25,3.2-2.48.76-5.36,1.15-8.62,1.15-2.65,0-5.21-.33-7.69-.98-2.49-.65-4.68-1.66-6.59-3.06-1.9-1.39-3.41-3.15-4.53-5.31-1.13-2.15-1.66-4.7-1.61-7.65h10.2c0,1.61.29,2.97.87,4.1.58,1.12,1.36,2.02,2.32,2.71.97.7,2.09,1.2,3.4,1.54,1.29.33,2.64.5,4.02.5.94,0,1.95-.08,3.02-.24,1.07-.15,2.08-.46,3.02-.9.94-.45,1.73-1.07,2.35-1.86.63-.78.94-1.77.94-2.98,0-1.3-.42-2.35-1.24-3.16-.83-.8-1.92-1.47-3.26-2.01-1.34-.54-2.86-1.01-4.57-1.42-1.69-.4-3.42-.85-5.16-1.34-1.8-.45-3.54-.99-5.24-1.65-1.71-.64-3.23-1.48-4.57-2.51-1.34-1.03-2.42-2.32-3.25-3.86-.84-1.54-1.24-3.41-1.24-5.61,0-2.47.53-4.6,1.58-6.41,1.05-1.81,2.42-3.32,4.13-4.53,1.69-1.21,3.63-2.11,5.77-2.69,2.16-.58,4.3-.88,6.46-.88,2.5,0,4.91.29,7.21.85,2.31.56,4.35,1.47,6.16,2.72,1.78,1.24,3.21,2.85,4.26,4.79,1.05,1.95,1.58,4.31,1.58,7.08h-10.21c-.09-1.43-.39-2.61-.9-3.55-.51-.94-1.2-1.68-2.05-2.22-.85-.54-1.82-.91-2.92-1.14-1.1-.23-2.3-.33-3.59-.33-.86,0-1.71.09-2.56.27-.85.17-1.62.49-2.32.93-.69.45-1.25,1.01-1.71,1.68-.45.67-.68,1.52-.68,2.55,0,.93.18,1.71.54,2.27.36.59,1.07,1.13,2.12,1.62,1.05.49,2.51.98,4.35,1.47,1.87.5,4.29,1.13,7.29,1.89.89.18,2.13.5,3.72.97,1.6.47,3.17,1.22,4.74,2.25,1.57,1.04,2.92,2.41,4.06,4.13,1.14,1.73,1.71,3.94,1.71,6.62Z"/>
      <polygon class="cls-1" points="472.28 443.82 472.28 491.76 462.42 491.76 462.42 457.78 462.28 457.78 450.52 491.76 442.4 491.76 430.65 458.11 430.52 458.11 430.52 491.76 420.64 491.76 420.64 443.82 435.48 443.82 446.7 476.79 446.83 476.79 457.45 443.82 472.28 443.82"/>
      <polygon class="cls-1" points="475.47 418.77 475.47 427.63 439.08 427.63 439.08 379.69 474.93 379.69 474.93 388.56 449.62 388.56 449.62 398.83 472.85 398.83 472.85 407.03 449.62 407.03 449.62 418.77 475.47 418.77"/>
      <polygon class="cls-1" points="433.58 379.69 433.58 388.56 419.2 388.56 419.2 427.64 408.66 427.64 408.66 388.56 394.29 388.56 394.29 379.69 433.58 379.69"/>
      <path class="cls-1" d="M391.8,413.4c0,2.2-.42,4.24-1.27,6.11-.86,1.89-2.12,3.51-3.8,4.87-1.68,1.37-3.76,2.42-6.25,3.2-2.48.75-5.36,1.14-8.62,1.14-2.65,0-5.2-.33-7.69-.98-2.49-.64-4.68-1.66-6.57-3.06-1.91-1.38-3.42-3.15-4.54-5.31-1.13-2.15-1.66-4.7-1.61-7.65h10.2c0,1.61.3,2.98.87,4.1.59,1.12,1.36,2.03,2.32,2.71.97.7,2.1,1.21,3.4,1.56,1.3.33,2.64.49,4.02.49.94,0,1.95-.08,3.02-.24,1.07-.16,2.08-.45,3.02-.9.94-.44,1.73-1.06,2.35-1.84.63-.78.94-1.78.94-2.99,0-1.3-.42-2.35-1.24-3.15-.83-.82-1.91-1.48-3.26-2.02-1.34-.54-2.86-1.01-4.57-1.4-1.69-.41-3.42-.86-5.17-1.35-1.78-.45-3.53-.99-5.23-1.64-1.71-.65-3.23-1.49-4.57-2.52-1.34-1.03-2.42-2.32-3.25-3.86-.84-1.54-1.24-3.41-1.24-5.61,0-2.46.53-4.6,1.58-6.41s2.42-3.32,4.13-4.53c1.71-1.21,3.63-2.11,5.78-2.68,2.15-.59,4.29-.88,6.45-.88,2.5,0,4.91.28,7.21.84,2.31.56,4.35,1.47,6.16,2.72,1.79,1.25,3.21,2.85,4.26,4.79,1.05,1.95,1.58,4.31,1.58,7.09h-10.21c-.09-1.44-.39-2.62-.9-3.56-.51-.93-1.2-1.68-2.05-2.21-.85-.54-1.82-.92-2.93-1.15-1.09-.23-2.28-.33-3.58-.33-.86,0-1.71.09-2.56.27-.85.18-1.62.49-2.32.93-.69.45-1.25,1.01-1.71,1.68-.45.67-.68,1.52-.68,2.55,0,.94.18,1.71.54,2.28.36.58,1.07,1.12,2.12,1.61,1.05.49,2.51.99,4.35,1.48,1.87.49,4.29,1.12,7.29,1.88.89.18,2.13.5,3.72.98,1.6.47,3.16,1.21,4.74,2.24,1.57,1.04,2.92,2.41,4.06,4.13,1.14,1.74,1.71,3.94,1.71,6.62Z"/>
      <path class="cls-1" d="M332.37,379.69h-10.81l-18.13,47.94h10.61l3.76-10.66h17.93l3.63,10.66h10.94l-17.93-47.94ZM320.56,409.1l6.24-17.59h.14l6.04,17.59h-12.42Z"/>
      <polygon class="cls-2" points="332.98 409.1 320.56 409.1 326.8 391.51 326.94 391.51 332.98 409.1"/>
      <polygon class="cls-1" points="305.24 379.69 292.36 427.64 281.88 427.64 273.76 395.01 273.62 395.01 265.63 427.64 254.95 427.64 242.26 379.69 252.8 379.69 260.38 412.33 260.52 412.33 268.85 379.69 278.72 379.69 286.91 412.72 287.05 412.72 294.91 379.69 305.24 379.69"/>
    </g>
  </g>
  <g>
    <path class="cls-2" d="M238.59,314.62h-15.36v-28.04c0-4.14.22-13.85.22-16.8-1.1,2.84-3.4,8.29-5.37,12.65l-15.57,33.92-15.57-33.92c-1.97-4.36-4.28-9.82-5.37-12.65,0,2.95.22,12.65.22,16.8v28.04h-15.03v-76.36h14.81l16.01,34.58c1.97,4.25,4.28,10.04,5.26,12.76.99-2.84,3.18-8.4,5.15-12.76l15.46-34.58h15.14v76.36Z"/>
    <path class="cls-2" d="M272.59,314.62h-15.35v-76.36h15.35v76.36Z"/>
    <path class="cls-2" d="M345.09,314.62h-53.85v-76.36h15.36v61.31h38.5v15.05Z"/>
    <path class="cls-2" d="M410.9,314.62h-53.85v-76.36h15.36v61.31h38.5v15.05Z"/>
    <path class="cls-2" d="M477.81,314.62h-54.95v-76.36h53.3v14.94h-37.95v13.2h22.05v14.84h-22.05v18.44h39.59v14.94Z"/>
    <path class="cls-2" d="M554.14,314.62h-17.66l-13.71-27.49h-15.46v27.49h-15.36v-76.36h35.76c14.48,0,26.43,7.96,26.43,24.22,0,11.45-4.94,18.65-14.7,22.47l14.7,29.67ZM538.35,262.8c0-6.87-4.17-9.71-10.97-9.71h-20.07v19.64h20.07c7.13,0,10.97-3.27,10.97-9.93Z"/>
  </g>
</svg>